<svg width="20" height="20" viewBox="0 0 20 20" fill="none" xmlns="http://www.w3.org/2000/svg">
<mask id="mask0_2281_27154" style="mask-type:luminance" maskUnits="userSpaceOnUse" x="0" y="11" width="16" height="9">
<path fill-rule="evenodd" clip-rule="evenodd" d="M0 11.957H15.1838V19.0566H0V11.957Z" fill="white"/>
</mask>
<g mask="url(#mask0_2281_27154)">
<path fill-rule="evenodd" clip-rule="evenodd" d="M7.592 13.457C4.813 13.457 1.5 13.814 1.5 15.519C1.5 16.871 3.55 17.557 7.592 17.557C11.634 17.557 13.684 16.864 13.684 15.499C13.684 14.144 11.634 13.457 7.592 13.457ZM7.592 19.057C5.516 19.057 0 19.057 0 15.519C0 11.957 5.714 11.957 7.592 11.957C10.851 11.957 15.184 12.324 15.184 15.499C15.184 19.057 9.47 19.057 7.592 19.057Z" fill="#3F453C"/>
</g>
<path fill-rule="evenodd" clip-rule="evenodd" d="M7.58912 1.5C5.58412 1.5 3.95312 3.131 3.95312 5.135C3.95312 7.139 5.58412 8.77 7.58912 8.77H7.62012C8.58413 8.766 9.49212 8.387 10.1731 7.7C10.8551 7.015 11.2281 6.104 11.2241 5.138C11.2241 3.131 9.59312 1.5 7.58912 1.5ZM7.58913 10.27C4.75713 10.27 2.45312 7.966 2.45312 5.135C2.45312 2.304 4.75713 0 7.58913 0C10.4201 0 12.7241 2.304 12.7241 5.135C12.7301 6.499 12.2011 7.787 11.2371 8.757C10.2751 9.728 8.99013 10.265 7.62313 10.27H7.58913Z" fill="#3F453C"/>
<path fill-rule="evenodd" clip-rule="evenodd" d="M14.4836 9.13177C14.1156 9.13177 13.7946 8.86077 13.7416 8.48577C13.6846 8.07577 13.9696 7.69577 14.3796 7.63877C15.6276 7.46377 16.5696 6.38077 16.5716 5.11877C16.5716 3.86477 15.6736 2.80677 14.4386 2.60477C14.0296 2.53677 13.7526 2.15177 13.8196 1.74277C13.8866 1.33377 14.2736 1.05877 14.6806 1.12377C16.6456 1.44577 18.0716 3.12677 18.0716 5.11977C18.0676 7.12477 16.5706 8.84677 14.5886 9.12477C14.5536 9.12977 14.5186 9.13177 14.4836 9.13177Z" fill="#3F453C"/>
<mask id="mask1_2281_27154" style="mask-type:luminance" maskUnits="userSpaceOnUse" x="15" y="11" width="5" height="6">
<path fill-rule="evenodd" clip-rule="evenodd" d="M15.8438 11.4834H19.9775V16.4609H15.8438V11.4834Z" fill="white"/>
</mask>
<g mask="url(#mask1_2281_27154)">
<path fill-rule="evenodd" clip-rule="evenodd" d="M17.894 16.4609C17.591 16.4609 17.306 16.2759 17.193 15.9769C17.046 15.5899 17.241 15.1559 17.628 15.0099C18.478 14.6879 18.478 14.2949 18.478 14.1269C18.478 13.5599 17.807 13.1719 16.484 12.9749C16.074 12.9129 15.791 12.5309 15.852 12.1219C15.914 11.7119 16.303 11.4369 16.705 11.4899C19.411 11.8949 19.978 13.1479 19.978 14.1269C19.978 14.8559 19.663 15.8429 18.16 16.4119C18.073 16.4449 17.983 16.4609 17.894 16.4609Z" fill="#3F453C"/>
</g>
</svg>
