<svg width="193" height="56" viewBox="0 0 193 56" fill="none" xmlns="http://www.w3.org/2000/svg">
<path d="M26.529 0.113141C25.9699 0.169235 25.3182 0.292166 25.0855 0.37392C24.8527 0.455675 24.589 0.532655 24.4983 0.532655C24.219 0.532655 22.757 1.26845 21.9281 1.827C21.0926 2.38616 19.3107 4.08092 19.0589 4.56548C18.9067 4.84769 18.739 5.12123 18.5564 5.38482C18.3512 5.67365 18.1465 6.05557 18.0904 6.22027C18.007 6.46866 17.9074 6.71127 17.792 6.94651C17.6818 7.1862 17.5945 7.43575 17.5312 7.69185C17.4936 7.87804 17.3916 8.27846 17.3074 8.58698C17.1398 9.20163 16.9536 12.3501 17.0467 12.9462C17.1117 13.3562 17.4471 13.6074 17.6524 13.4027C17.801 13.2536 21.1821 13.244 21.3313 13.3932C21.4507 13.5125 21.8248 13.3466 21.8344 13.1694C21.8344 13.1044 21.8344 12.4617 21.8248 11.7372C21.8153 11.0128 21.8618 10.1534 21.9275 9.82762C22.0576 9.12942 22.7283 7.64829 23.1007 7.24787C23.2403 7.08973 23.4641 6.8379 23.5852 6.67977C23.7064 6.52163 24.0322 6.24175 24.321 6.04602C24.6003 5.85983 24.9727 5.6086 25.1314 5.49701C25.9788 4.91936 28.2142 4.64008 29.4155 4.9659C29.7228 5.04945 30.1047 5.15209 30.2724 5.18968C30.4401 5.22728 30.7498 5.39437 30.9712 5.55251C31.1887 5.71482 31.4157 5.86407 31.6509 5.99947C32.1283 6.27935 33.2066 7.4991 33.3278 7.89057C33.3825 8.05614 33.4609 8.21292 33.5605 8.35603C33.9699 8.97069 34.0725 9.4642 34.0725 10.8707C34.0725 12.3143 33.9699 12.7523 33.4018 13.8795C32.8713 14.9316 31.2224 16.4032 30.4312 16.5243C30.2354 16.5524 30.0027 16.627 29.9281 16.692C29.462 17.0739 29.7491 17.0644 19.2636 17.1205C8.97147 17.167 8.42186 17.1855 7.62102 17.5305C7.47183 17.605 7.01592 17.8097 6.62445 17.987C6.22404 18.1731 5.76752 18.3498 5.60998 18.3874C5.44316 18.4249 5.2951 18.5205 5.19226 18.6571C5.10871 18.7765 4.89388 18.9179 4.71486 18.9835C4.33353 19.1029 2.04202 21.349 1.93938 21.7029C1.8851 21.8459 1.80635 21.9784 1.70664 22.0944C0.924307 23.0068 0.188515 25.1772 0.0393278 26.9841C-0.0627163 28.2504 0.0393277 29.8432 0.281608 30.7097C0.364085 30.9832 0.426314 31.2624 0.467793 31.5451C0.49584 31.7241 0.560886 31.927 0.61698 31.9927C0.663527 32.0577 0.905808 32.4951 1.14809 32.9516C1.42842 33.4938 1.74357 34.0173 2.09155 34.5187C2.57611 35.199 4.07574 36.7541 4.27088 36.7637C4.32697 36.7726 4.55075 36.9218 4.78348 37.099C5.20121 37.4153 6.4132 38.0395 7.0189 38.2538C7.19793 38.3188 7.51242 38.4495 7.7171 38.5426C8.29475 38.8034 10.2783 38.9991 12.4583 38.9991C14.572 38.9991 14.9354 38.9245 14.9354 38.505C14.9354 38.3934 15.0547 38.1511 15.2057 37.9745C15.3453 37.7954 15.5041 37.546 15.5411 37.4153C15.6992 36.9033 17.5993 34.5843 17.9251 34.5002C18.0182 34.4722 18.1041 34.4071 18.1041 34.351C18.1041 34.277 16.9584 34.249 14.1924 34.249C12.0501 34.249 10.1942 34.2114 10.0749 34.1648C9.82416 34.0827 9.56917 34.0144 9.31101 33.9601C9.01264 33.8951 8.62177 33.7459 8.46363 33.6343C8.28172 33.5172 8.08426 33.4262 7.87703 33.364C7.71829 33.3359 7.54165 33.2446 7.47601 33.1593C7.26944 32.9638 7.05187 32.7803 6.82436 32.6097C6.52599 32.3859 6.25626 32.1066 6.22761 31.9855C6.19062 31.8739 6.00383 31.6131 5.80989 31.4078C5.60881 31.1913 5.45066 30.9386 5.34383 30.6631C5.28302 30.4673 5.20514 30.2772 5.1111 30.095C4.6337 29.3401 4.70113 26.3952 5.19464 25.7918C5.31399 25.6522 5.47452 25.3538 5.56761 25.1306C5.77229 24.5995 6.00503 24.2827 6.69427 23.6125C7.40261 22.9137 7.90508 22.5599 8.32459 22.4668C8.50312 22.4262 8.67493 22.3603 8.83481 22.271C8.95395 22.192 9.0924 22.147 9.23523 22.1409C9.38159 22.1326 9.52427 22.0918 9.65295 22.0216C9.81109 21.9374 12.065 21.9022 19.6837 21.8628C28.6624 21.8163 29.5754 21.7978 30.2551 21.6486C31.1586 21.4439 31.8663 21.2309 32.1182 21.0716C32.2634 20.9961 32.4163 20.9361 32.5741 20.8925C32.7561 20.8412 32.9267 20.7559 33.0771 20.6413C33.2078 20.5482 33.3475 20.4623 33.394 20.4623C33.7568 20.4623 36.2626 18.2925 36.7006 17.5937C36.8326 17.3874 36.9754 17.1882 37.1285 16.997C37.6059 16.3728 38.2838 14.8176 38.6472 13.5227C38.8799 12.6872 38.9354 9.94637 38.7403 8.88475C38.507 7.6644 38.1065 6.50969 37.6411 5.73631C37.0545 4.75883 36.9614 4.60964 36.5329 4.06959C35.9833 3.38034 34.7427 2.21608 34.3249 1.98096C34.1056 1.84731 33.894 1.70127 33.6912 1.54355C33.4304 1.33886 33.1416 1.18013 33.058 1.18013C32.9745 1.18013 32.7042 1.07749 32.4613 0.947396C32.2184 0.817304 31.9767 0.714664 31.9242 0.714664C31.8717 0.714664 31.5608 0.603072 31.2254 0.462836C30.788 0.283811 30.313 0.193105 29.4185 0.100012C28.0006 -0.0354497 27.8795 -0.0354497 26.529 0.113141Z" fill="#2E8902"/>
<path d="M41.0023 17.7725C40.8346 18.1353 40.6018 18.5083 40.4807 18.6014C40.3691 18.6849 40.1823 18.9457 40.0803 19.1695C39.801 19.7662 39.4376 20.2311 38.5998 21.06C38.182 21.4604 37.8449 21.8053 37.8449 21.8238C37.8449 21.8423 39.7449 21.8703 42.0645 21.8799C46.2089 21.9169 46.2835 21.9169 46.7865 22.1311C47.0658 22.2427 47.4382 22.3824 47.6154 22.4385C47.8114 22.4945 47.9992 22.576 48.174 22.6807C48.5917 22.9511 49.7667 23.9196 49.7667 24.0031C49.7667 24.0497 49.9344 24.2824 50.1397 24.5157C50.345 24.7491 50.5121 25.0092 50.5121 25.0838C50.5121 25.1584 50.6236 25.4282 50.7633 25.6889C51.0706 26.2946 51.1733 26.7321 51.2293 27.8128C51.2759 28.7347 51.1452 29.6663 50.922 30.0106C50.8474 30.1222 50.7263 30.4206 50.6517 30.6718C50.5771 30.9421 50.4005 31.2494 50.2232 31.4076C50.0651 31.5663 49.8694 31.8176 49.8055 31.9852C49.7309 32.1529 49.4886 32.403 49.2087 32.582C48.9569 32.7497 48.6872 32.9729 48.6031 33.094C48.5285 33.2062 48.3333 33.3273 48.1656 33.3643C47.9431 33.4292 47.73 33.5231 47.5319 33.6436C47.3529 33.7558 46.9733 33.8954 46.6964 33.9605C46.4195 34.0255 46.0537 34.1186 45.8861 34.1652C45.6999 34.2213 41.9929 34.2583 36.2462 34.2583C31.1046 34.2583 26.5502 34.2863 26.1122 34.3329C25.5721 34.3794 25.1532 34.482 24.7808 34.6497C24.4825 34.7894 24.1936 34.901 24.1381 34.901C23.9705 34.901 22.5174 35.6367 22.0048 35.9817C21.744 36.1607 21.4928 36.2979 21.4462 36.2979C21.4092 36.2979 20.9688 36.6894 20.4962 37.174C19.4161 38.2541 18.3724 39.6887 18.1492 40.3964C18.0491 40.6666 17.934 40.931 17.8042 41.1883C17.5015 41.803 17.3053 42.4647 17.2242 43.145C17.1852 43.3992 17.1322 43.651 17.0655 43.8993C16.9461 44.2723 17.112 46.6283 17.3173 47.6344C17.4156 48.072 17.5555 48.4992 17.735 48.9102C17.8842 49.2176 18.0053 49.5249 18.0053 49.5905C18.0053 49.7582 18.3777 50.3914 19.0019 51.3044C19.5605 52.1142 20.5946 53.251 21.1908 53.698C22.0197 54.3216 23.2955 55.1134 23.4728 55.1134C23.5748 55.1134 23.8075 55.2161 23.9848 55.3372C24.2255 55.481 24.4911 55.5784 24.7677 55.6243C25.0348 55.6656 25.2969 55.7341 25.55 55.8289C25.9678 56.0151 30.0955 56.0712 30.3097 55.885C30.3837 55.8289 30.7101 55.7263 31.0455 55.6613C31.3809 55.5962 31.7616 55.4655 31.8929 55.382C32.0886 55.2513 32.4795 55.0931 32.7218 55.0651C32.7779 55.0556 33.0106 54.907 34.1098 54.1897C34.9011 53.6681 35.7395 52.8947 36.5219 51.9542C37.0154 51.3676 38.0305 49.7099 38.0305 49.5076C38.0305 49.433 38.1426 49.1633 38.2727 48.9108C38.6266 48.2311 38.7758 47.2811 38.8599 45.0087C38.9435 42.8944 38.9065 42.559 38.6081 42.6814C38.4034 42.756 34.6964 42.756 34.5753 42.6718C34.5192 42.6438 34.3963 42.6903 34.296 42.7834C34.1373 42.9326 34.117 43.0818 34.117 44.5814C34.117 46.312 34.0704 46.5931 33.5489 47.7293C33.4558 47.9435 33.3698 48.1673 33.3698 48.2228C33.3698 48.437 31.6184 50.1604 31.1344 50.4117C30.3586 50.8216 30.1283 50.9147 29.4391 51.1009C28.452 51.3712 27.4925 51.3617 26.3956 51.0544C25.9117 50.9243 25.3812 50.71 25.2224 50.5889C25.0547 50.4695 24.8775 50.3651 24.822 50.3651C24.7564 50.3651 24.5517 50.2159 24.3446 50.0393C24.1375 49.8626 23.9531 49.7135 23.9066 49.7135C23.7765 49.7135 22.6677 48.3535 22.5657 48.0646C22.5096 47.9155 22.4464 47.7388 22.407 47.6642C21.9892 46.6396 21.895 46.2392 21.8484 45.3823C21.8019 44.5534 21.8299 44.3678 22.0346 43.7525C22.1539 43.3706 22.2954 42.9236 22.333 42.756C22.361 42.5972 22.4523 42.411 22.5287 42.346C22.569 42.3093 22.6014 42.2647 22.6239 42.2151C22.6463 42.1654 22.6584 42.1117 22.6594 42.0572C22.6594 41.7683 24.7737 39.7472 25.081 39.7472C25.146 39.7472 25.2952 39.6636 25.4253 39.561C25.5554 39.4583 25.7607 39.3748 25.8723 39.3748C25.9839 39.3748 26.2453 39.3002 26.4404 39.2071C26.7758 39.0579 27.5396 39.049 36.5368 38.9929C47.1828 38.9278 47.6483 38.9093 48.6078 38.4152C48.8776 38.2756 49.1574 38.164 49.241 38.164C49.4272 38.164 50.219 37.726 51.2526 37.0648C52.1095 36.5062 53.1437 35.5932 53.4415 35.1182C53.5441 34.96 53.8049 34.5966 54.0191 34.3173C54.2429 34.0285 54.6242 33.3858 54.885 32.8923C55.1458 32.3892 55.3976 31.9327 55.4537 31.8677C55.5098 31.8026 55.5277 31.7095 55.5003 31.663C55.4722 31.6069 55.5092 31.3927 55.5934 31.1695C55.8261 30.5268 55.9287 29.7534 55.9753 28.1983C56.0123 26.8478 55.9938 26.6801 55.733 25.5248C55.5743 24.8451 55.3415 24.0813 55.2115 23.8301C55.0808 23.5693 54.9787 23.3175 54.9787 23.2709C54.9787 23.1593 54.3545 22.1628 54.1773 21.9766C54.0915 21.8831 54.0278 21.7716 53.9911 21.6501C53.963 21.5386 53.7954 21.3154 53.6372 21.1662C53.4791 21.0074 53.0691 20.5885 52.7337 20.2347C51.8303 19.2846 51.6071 19.0889 51.3183 19.0239C51.1385 18.9595 50.9782 18.8504 50.8522 18.707C50.7406 18.5673 50.4703 18.3997 50.2471 18.3346C50.0239 18.2696 49.4552 18.0362 48.9897 17.8131C48.5123 17.5988 47.9466 17.3953 47.7139 17.3565C47.4806 17.3285 47.0897 17.2634 46.8289 17.2169C46.5771 17.1608 45.2266 17.1238 43.8297 17.1238L41.3054 17.1143L41.0023 17.7725Z" fill="#2E8902"/>
<path d="M10.6108 24.646C10.5738 24.6926 10.415 24.7576 10.2473 24.7952C9.41189 24.9629 8.28224 25.8664 7.96597 26.6302C7.63059 27.4125 7.556 28.0087 7.69564 28.6233C7.76995 28.9351 7.86975 29.2403 7.99401 29.5358C8.24584 30.0573 8.90704 30.7466 9.4101 30.9984C9.65238 31.1177 9.87556 31.2496 9.8875 31.2866C9.906 31.3338 13.9018 31.3612 18.7635 31.3612H27.6026L27.5841 27.9806L27.556 24.609L19.1079 24.581C13.9824 24.5714 10.6388 24.5995 10.6108 24.646Z" fill="#2E8902"/>
<path d="M29.5552 27.8131C29.5552 29.6033 29.5278 31.1286 29.4997 31.2146C29.4437 31.3542 30.2075 31.3632 37.7235 31.3632H46.004L46.5065 31.1245C47.1122 30.8261 47.8945 30.0503 48.1834 29.4476C48.3695 29.0567 48.3976 28.8508 48.3976 28.0321C48.3976 27.4264 48.36 27.0355 48.2949 26.9699C48.2299 26.9015 48.1904 26.8128 48.1834 26.7187C48.1834 26.4949 47.4673 25.6195 47.0376 25.3217C46.7506 25.1424 46.4446 24.9955 46.1252 24.8837C45.8453 24.8001 45.5845 24.6885 45.538 24.6509C45.4914 24.6133 41.8686 24.5674 37.5004 24.5674H29.5552V27.8131Z" fill="#2E8902"/>
<path d="M73.1363 16.0834C69.6222 16.1672 68.2314 16.2616 68.0645 16.4268C67.9997 16.4915 67.9997 17.0387 68.0829 18.1794C68.2778 21.0352 68.3057 29.5665 68.1388 33.2499C68.055 35.009 67.9902 37.1044 67.9902 37.9017C67.9902 39.302 67.9997 39.3483 68.2035 39.4594C68.361 39.5521 69.1772 39.5782 71.6344 39.5782C74.3976 39.5782 74.8705 39.5598 74.9448 39.4392C75.0469 39.2907 75.0095 38.4102 74.8057 36.0083C74.5925 33.5232 74.5461 32.0955 74.6572 31.808L74.7594 31.5579H75.7515C76.8732 31.5579 77.3372 31.6595 77.68 31.9565C77.9028 32.1603 79.0244 34.7286 80.2019 37.7704C80.5269 38.6021 80.8234 39.3281 80.8697 39.3744C81.0277 39.5319 82.3627 39.6156 84.5418 39.6156C86.6093 39.6061 87.6668 39.5414 87.7963 39.4113C87.9632 39.2538 87.2771 37.6961 84.9589 32.9487C84.3006 31.6042 83.7909 30.4451 83.8301 30.3893C83.8669 30.3245 84.2287 30.0091 84.6464 29.6764C86.352 28.304 87.0293 27.1544 87.3258 25.1701C87.8171 21.962 86.983 19.4305 84.9333 17.8912C83.5889 16.8813 81.8826 16.2682 79.852 16.0828C78.7 15.9723 78.2367 15.9723 73.1363 16.0834ZM78.0418 21.1303C79.8241 21.4451 80.638 22.2591 80.8341 23.9303C80.9636 25.0525 80.5649 26.1373 79.8324 26.6287C79.23 27.0445 78.6086 27.2126 77.5326 27.2685C76.6332 27.3148 74.9923 27.1942 74.6216 27.0552C74.4819 27 74.4635 26.7493 74.5027 24.2273C74.5301 21.1766 74.5117 21.2693 75.1331 21.1023C75.6309 20.952 77.1512 20.9699 78.0418 21.1303Z" fill="black"/>
<path d="M138.008 16.1572C137.889 16.2315 137.889 16.4073 137.989 17.3906C138.249 19.9036 138.277 21.0146 138.277 30.0009V39.3384L138.48 39.4572C138.768 39.6241 143.96 39.6354 144.124 39.4667C144.208 39.3829 144.236 37.3059 144.243 31.2141C144.262 23.5549 144.373 19.3452 144.623 16.8785C144.661 16.5172 144.642 16.2945 144.568 16.2018C144.484 16.0907 143.919 16.0723 141.295 16.0723C139.565 16.074 138.082 16.1109 138.008 16.1572Z" fill="black"/>
<path d="M166.26 18.0861C166.186 18.2643 166.149 19.2083 166.141 21.1095C166.141 23.7425 166.132 23.8815 165.963 24.0116C165.861 24.0859 165.629 24.1411 165.453 24.1411C165.225 24.1492 164.998 24.1803 164.776 24.2338L164.424 24.336L164.433 26.4314C164.433 27.8038 164.47 28.5737 164.535 28.6569C164.591 28.7311 164.841 28.7757 165.175 28.7757C165.722 28.7757 166.167 28.9147 166.213 29.0912C166.223 29.147 166.232 31.0107 166.232 33.2267V37.26L166.491 37.7888C166.816 38.4565 167.511 39.0869 168.207 39.356C169.653 39.9032 171.703 39.9501 173.538 39.4855C174.79 39.1706 176.271 38.4286 176.331 38.0947C176.349 37.9925 176.442 37.1489 176.526 36.2126C176.693 34.3674 176.674 34.2468 176.21 34.2468C176.081 34.2468 175.616 34.3299 175.181 34.4321C174.226 34.6549 173.696 34.6638 173.076 34.4785C172.482 34.3002 172.177 33.9497 172.038 33.3194C171.926 32.7847 171.899 29.1559 172.01 28.989C172.065 28.9058 172.622 28.8702 174.068 28.85L176.062 28.822L176.117 26.6892C176.145 25.5117 176.201 24.418 176.236 24.2534C176.375 23.6593 176.311 23.6504 174.113 23.7247C172.314 23.7805 172.147 23.7805 172.027 23.632C171.86 23.4371 171.848 22.6399 171.971 20.2848C172.054 18.764 172.045 18.6897 171.878 18.6434C171.785 18.6154 171.118 18.5245 170.404 18.4396C169.69 18.3546 168.587 18.1889 167.956 18.0683C166.483 17.7712 166.39 17.7712 166.26 18.0861Z" fill="black"/>
<path d="M94.8336 22.6675C93.1811 22.898 91.6484 23.6594 90.4664 24.8371C89.0198 26.2927 88.2225 28.11 88.0187 30.4216C87.8239 32.6097 88.2968 34.7704 89.2794 36.2539C90.8835 38.6743 93.573 40.0003 96.8738 40.0003C99.5258 40.0003 101.668 39.3046 103.013 38.016L103.504 37.5336L103.402 37.1718C103.198 36.4393 101.872 34.0284 101.566 33.8448C101.51 33.808 101.241 33.9286 100.963 34.1045C100.23 34.5679 99.6464 34.8554 98.9044 35.1061C98.0329 35.3937 96.3082 35.4032 95.518 35.115C94.8319 34.8649 94.2942 34.5126 94.0067 34.1413C93.775 33.8353 93.5433 33.3256 93.608 33.2697C93.6264 33.2513 94.4522 33.1682 95.4444 33.0915C98.5503 32.8408 102.918 32.4053 103.159 32.3127C103.446 32.201 103.734 31.8303 103.882 31.4037C104.04 30.9124 103.938 29.0766 103.696 28.2419C103.326 26.9717 102.732 25.9796 101.703 24.8947C100.574 23.7166 99.3939 23.0495 97.8921 22.7435C97.0128 22.5564 95.7985 22.5284 94.8336 22.6675ZM96.5494 27.0252C97.1375 27.3062 97.6143 27.7765 97.9033 28.3607C98.1719 28.9168 98.2004 29.4735 97.9681 29.603C97.7643 29.7052 95.7985 29.9648 94.5372 30.039C93.4149 30.1133 93.3038 30.067 93.3038 29.464C93.3038 27.6561 95.0469 26.3485 96.5494 27.0252Z" fill="black"/>
<path d="M183.665 22.6675C182.013 22.8978 180.48 23.6593 179.298 24.8371C177.851 26.2927 177.054 28.11 176.85 30.4216C176.655 32.6097 177.128 34.7704 178.111 36.2539C179.715 38.6743 182.404 40.0003 185.705 40.0003C188.357 40.0003 190.499 39.3046 191.844 38.016L192.335 37.5336L192.233 37.1718C192.029 36.4393 190.703 34.0284 190.397 33.8448C190.341 33.808 190.073 33.9286 189.795 34.1045C189.062 34.5679 188.477 34.8554 187.736 35.1061C186.864 35.3937 185.139 35.4032 184.35 35.115C183.664 34.8649 183.126 34.5126 182.838 34.1413C182.607 33.8353 182.374 33.3256 182.44 33.2697C182.458 33.2513 183.283 33.1682 184.275 33.0915C187.382 32.8408 191.749 32.4053 191.99 32.3127C192.277 32.201 192.565 31.8303 192.713 31.4037C192.871 30.9124 192.769 29.0766 192.528 28.2419C192.157 26.9717 191.564 25.9796 190.534 24.8947C189.405 23.7166 188.226 23.0495 186.723 22.7435C185.844 22.5564 184.63 22.5284 183.665 22.6675ZM185.38 27.0252C185.969 27.3062 186.445 27.7765 186.734 28.3607C187.004 28.9168 187.031 29.4735 186.799 29.603C186.595 29.7052 184.63 29.9648 183.368 30.039C182.247 30.1133 182.135 30.067 182.135 29.464C182.135 27.6561 183.879 26.3485 185.38 27.0252Z" fill="black"/>
<path d="M126.778 22.9824C123.912 23.4464 121.64 25.3196 120.658 28.0269C120.213 29.2418 120.074 30.2708 120.13 31.8844C120.185 33.47 120.325 34.1099 120.853 35.2499C121.923 37.5497 123.774 39.0427 126.389 39.692C126.852 39.8108 127.399 39.8494 128.54 39.8494C129.885 39.8399 130.181 39.812 130.976 39.5987C132.413 39.2191 133.412 38.6345 134.481 37.5871C135.39 36.6877 135.907 35.9272 136.308 34.8976C136.985 33.1747 137.115 30.8922 136.651 28.9079C136.002 26.1157 133.795 23.8819 130.958 23.1493C129.835 22.8618 127.955 22.7881 126.778 22.9824ZM129.726 28.3049C130.923 28.9168 131.637 30.4657 131.404 31.9491C131.164 33.4979 130.116 34.5828 128.771 34.6939C127.529 34.7865 126.518 34.1746 125.924 32.971C125.637 32.3959 125.619 32.2943 125.619 31.3758C125.619 30.4573 125.637 30.3563 125.924 29.7813C126.286 29.0392 126.982 28.381 127.603 28.1772C128.206 27.9805 129.216 28.0453 129.726 28.3049Z" fill="black"/>
<path d="M104.413 23.6777C104.265 23.7704 104.246 23.9557 104.246 25.4303C104.246 27.0623 104.246 27.0902 104.487 27.4425C104.821 27.9243 105.461 28.6663 106.824 30.1409C107.445 30.8176 107.952 31.4111 107.952 31.4574C107.952 31.5126 107.173 32.4585 106.219 33.5623C105.273 34.675 104.436 35.6856 104.364 35.8157C104.281 35.9939 104.245 36.5013 104.245 37.6574V39.2615L104.597 39.4189C105.108 39.6506 108.631 39.6506 108.994 39.4189C109.123 39.3351 109.856 38.4636 110.607 37.4994C111.367 36.5257 112.017 35.7468 112.053 35.7563C112.09 35.7658 112.665 36.5447 113.333 37.4905C114.038 38.4826 114.668 39.2799 114.844 39.3916C115.114 39.5585 115.289 39.5769 117.181 39.5769C118.989 39.5769 119.26 39.5585 119.481 39.41L119.731 39.2526V37.6206C119.731 36.5637 119.694 35.9238 119.62 35.7937C119.564 35.6826 118.869 34.839 118.072 33.93C117.274 33.0122 116.486 32.1127 116.319 31.9178C116.115 31.6766 116.031 31.5192 116.087 31.4265C116.124 31.3618 116.847 30.5175 117.691 29.5533C118.534 28.5986 119.332 27.6617 119.48 27.4948L119.73 27.1704V25.52C119.73 23.6189 119.712 23.582 119.007 23.582C118.766 23.582 117.7 23.6284 116.624 23.6747L114.677 23.7674L114.38 24.1108C114.213 24.3051 113.638 25.0376 113.1 25.7333C112.562 26.4379 112.09 27.013 112.052 27.013C112.015 27.0034 111.384 26.3 110.643 25.4457C109.901 24.5837 109.196 23.8321 109.066 23.7858C108.734 23.6498 104.617 23.5571 104.413 23.6777Z" fill="black"/>
<path d="M147.252 23.7442C146.993 24.0413 146.918 24.2789 146.723 25.3114C146.455 26.7302 146.344 28.2415 146.344 30.4575C146.344 35.0755 146.76 37.0597 148.013 38.3394C148.844 39.1831 149.876 39.5912 151.443 39.6934C152.945 39.7861 154.243 39.3316 156.284 38.0056C157.313 37.3289 157.239 37.301 157.378 38.4808C157.471 39.3429 157.526 39.5009 157.73 39.5936C157.99 39.7047 161.736 39.751 162.468 39.6494C163.618 39.4825 163.544 39.8437 163.405 35.3C163.312 31.925 163.312 30.9631 163.451 27.8144C163.535 25.8206 163.581 24.1054 163.544 23.9848C163.522 23.9158 163.484 23.8525 163.435 23.7996C163.385 23.7467 163.324 23.7055 163.257 23.6789C162.886 23.5303 157.731 23.56 157.526 23.7068C157.378 23.8179 157.36 24.1886 157.313 28.4822L157.257 33.1458L156.998 33.5356C156.701 33.99 155.941 34.5925 155.449 34.7689C154.402 35.1396 153.242 34.6851 152.816 33.7304C152.538 33.0811 152.436 31.6439 152.491 28.7786C152.519 26.9708 152.584 25.7838 152.695 25.0358L152.853 23.923L152.649 23.7561C152.464 23.6076 152.213 23.5892 149.916 23.5892C147.632 23.585 147.382 23.6034 147.252 23.7442Z" fill="black"/>
</svg>
