<svg  viewBox="0 0 137 40" fill="none" xmlns="http://www.w3.org/2000/svg">
<path d="M18.8521 0.0804004C18.4548 0.120262 17.9917 0.207619 17.8263 0.265716C17.6609 0.323813 17.4735 0.378517 17.409 0.378517C17.2106 0.378517 16.1716 0.901386 15.5826 1.29831C14.9889 1.69566 13.7226 2.9 13.5437 3.24433C13.4355 3.44488 13.3163 3.63926 13.1866 3.82657C13.0407 4.03182 12.8953 4.30322 12.8554 4.42026C12.7962 4.59678 12.7254 4.76918 12.6434 4.93635C12.5651 5.10667 12.503 5.28401 12.4581 5.466C12.4314 5.59831 12.3589 5.88285 12.2991 6.10209C12.1799 6.53888 12.0476 8.77624 12.1137 9.19987C12.16 9.49121 12.3983 9.66974 12.5442 9.52428C12.6498 9.41827 15.0525 9.41148 15.1585 9.5175C15.2433 9.60231 15.5092 9.48442 15.516 9.35847C15.516 9.31225 15.516 8.85554 15.5092 8.34072C15.5024 7.82591 15.5355 7.21526 15.5822 6.98372C15.6746 6.48757 16.1512 5.43504 16.4159 5.1505C16.5151 5.03812 16.6741 4.85917 16.7602 4.74679C16.8463 4.63441 17.0778 4.43553 17.2831 4.29643C17.4815 4.16413 17.7461 3.9856 17.8589 3.9063C18.4611 3.4958 20.0497 3.29734 20.9033 3.52888C21.1217 3.58825 21.3931 3.66119 21.5123 3.6879C21.6314 3.71462 21.8515 3.83336 22.0088 3.94573C22.1634 4.06108 22.3247 4.16714 22.4918 4.26336C22.8311 4.46224 23.5974 5.32903 23.6835 5.60721C23.7223 5.72487 23.778 5.83629 23.8488 5.93798C24.1397 6.37477 24.2127 6.72547 24.2127 7.72498C24.2127 8.75079 24.1397 9.06205 23.736 9.86311C23.359 10.6107 22.1874 11.6565 21.6251 11.7426C21.486 11.7625 21.3206 11.8155 21.2676 11.8617C20.9364 12.1331 21.1403 12.1263 13.6891 12.1662C6.37532 12.1993 5.98476 12.2124 5.41567 12.4575C5.30965 12.5105 4.98567 12.656 4.70748 12.7819C4.42294 12.9142 4.09853 13.0398 3.98658 13.0665C3.86803 13.0931 3.76282 13.1611 3.68973 13.2582C3.63036 13.343 3.4777 13.4435 3.35048 13.4901C3.07951 13.5749 1.4511 15.1711 1.37816 15.4226C1.33959 15.5242 1.28363 15.6183 1.21278 15.7008C0.656833 16.3492 0.133963 17.8915 0.0279472 19.1755C-0.0445676 20.0754 0.0279471 21.2072 0.200117 21.823C0.258727 22.0173 0.302949 22.2158 0.332424 22.4166C0.352355 22.5439 0.398578 22.688 0.43844 22.7347C0.471517 22.7809 0.643687 23.0918 0.815857 23.4162C1.01507 23.8014 1.23902 24.1734 1.4863 24.5298C1.83064 25.0132 2.89631 26.1183 3.03498 26.1251C3.07484 26.1314 3.23386 26.2375 3.39925 26.3634C3.69609 26.5882 4.55736 27.0317 4.98779 27.184C5.11501 27.2302 5.33849 27.3231 5.48394 27.3892C5.89444 27.5745 7.30402 27.7136 8.85312 27.7136C10.3552 27.7136 10.6134 27.6606 10.6134 27.3625C10.6134 27.2832 10.6982 27.111 10.8055 26.9855C10.9047 26.8583 11.0175 26.681 11.0438 26.5882C11.1562 26.2243 12.5064 24.5764 12.738 24.5166C12.8041 24.4967 12.8652 24.4505 12.8652 24.4106C12.8652 24.358 12.051 24.3381 10.0855 24.3381C8.56306 24.3381 7.24423 24.3114 7.15942 24.2783C6.98127 24.2199 6.80006 24.1714 6.61661 24.1328C6.40458 24.0866 6.12682 23.9806 6.01445 23.9013C5.88518 23.8181 5.74485 23.7534 5.59759 23.7092C5.48479 23.6893 5.35927 23.6244 5.31262 23.5637C5.16583 23.4248 5.01122 23.2944 4.84954 23.1732C4.63751 23.0142 4.44584 22.8157 4.42548 22.7296C4.39919 22.6503 4.26646 22.465 4.12864 22.3191C3.98575 22.1652 3.87336 21.9857 3.79744 21.7899C3.75423 21.6507 3.69889 21.5156 3.63206 21.3862C3.29281 20.8497 3.34073 18.757 3.69143 18.3283C3.77624 18.229 3.89031 18.017 3.95647 17.8584C4.10192 17.481 4.26731 17.2558 4.7571 16.7796C5.26046 16.283 5.61752 16.0315 5.91564 15.9654C6.04251 15.9365 6.1646 15.8897 6.27821 15.8263C6.36288 15.7701 6.46126 15.7382 6.56276 15.7338C6.66677 15.7279 6.76816 15.6989 6.8596 15.649C6.97198 15.5892 8.57366 15.5642 13.9877 15.5362C20.3681 15.5031 21.0169 15.49 21.5 15.384C22.142 15.2385 22.6449 15.0871 22.8239 14.9739C22.9271 14.9203 23.0357 14.8776 23.1479 14.8467C23.2772 14.8102 23.3985 14.7496 23.5053 14.6682C23.5982 14.602 23.6975 14.5409 23.7305 14.5409C23.9884 14.5409 25.769 12.9991 26.0803 12.5025C26.1741 12.3559 26.2756 12.2143 26.3843 12.0784C26.7236 11.6348 27.2053 10.5297 27.4636 9.60952C27.6289 9.01583 27.6684 7.06811 27.5297 6.3137C27.3639 5.44649 27.0793 4.62593 26.7486 4.07635C26.3317 3.38173 26.2656 3.27571 25.9611 2.89194C25.5705 2.40215 24.6889 1.5748 24.3921 1.40772C24.2362 1.31274 24.0858 1.20896 23.9417 1.09688C23.7564 0.951426 23.5511 0.838625 23.4918 0.838625C23.4324 0.838625 23.2403 0.765686 23.0677 0.67324C22.8951 0.580795 22.7234 0.507856 22.6861 0.507856C22.6487 0.507856 22.4278 0.428556 22.1895 0.328901C21.8786 0.201682 21.5411 0.137225 20.9054 0.071071C19.8978 -0.0251913 19.8118 -0.0251913 18.8521 0.0804004Z" fill="#2E8902"/>
<path d="M29.1401 12.6299C29.0209 12.8877 28.8555 13.1527 28.7694 13.2189C28.6901 13.2782 28.5574 13.4636 28.4849 13.6226C28.2864 14.0466 28.0282 14.377 27.4328 14.966C27.1359 15.2506 26.8963 15.4957 26.8963 15.5088C26.8963 15.522 28.2466 15.5419 29.8949 15.5487C32.84 15.575 32.893 15.575 33.2505 15.7272C33.449 15.8065 33.7136 15.9057 33.8395 15.9456C33.9788 15.9854 34.1122 16.0433 34.2364 16.1178C34.5333 16.3099 35.3683 16.9981 35.3683 17.0575C35.3683 17.0906 35.4874 17.256 35.6333 17.4218C35.7792 17.5876 35.8979 17.7725 35.8979 17.8255C35.8979 17.8785 35.9772 18.0702 36.0765 18.2555C36.2948 18.6859 36.3678 18.9967 36.4077 19.7647C36.4407 20.4199 36.3479 21.0819 36.1893 21.3265C36.1363 21.4058 36.0502 21.6179 35.9972 21.7964C35.9441 21.9885 35.8186 22.2069 35.6927 22.3193C35.5803 22.4321 35.4412 22.6106 35.3958 22.7298C35.3428 22.8489 35.1707 23.0266 34.9718 23.1538C34.7928 23.273 34.6011 23.4316 34.5414 23.5177C34.4883 23.5974 34.3497 23.6835 34.2305 23.7098C34.0723 23.7559 33.9209 23.8226 33.7802 23.9082C33.6529 23.988 33.3832 24.0872 33.1865 24.1334C32.9897 24.1796 32.7298 24.2458 32.6106 24.2789C32.4783 24.3187 29.844 24.345 25.7603 24.345C22.1065 24.345 18.8701 24.3649 18.5588 24.398C18.1751 24.4311 17.8774 24.504 17.6128 24.6232C17.4007 24.7224 17.1955 24.8017 17.156 24.8017C17.0369 24.8017 16.0043 25.3246 15.64 25.5697C15.4547 25.6969 15.2762 25.7945 15.2431 25.7945C15.2168 25.7945 14.9038 26.0726 14.568 26.417C13.8004 27.1845 13.0587 28.204 12.9001 28.7069C12.829 28.8989 12.7472 29.0868 12.655 29.2697C12.4399 29.7065 12.3005 30.1767 12.2428 30.6602C12.2151 30.8408 12.1774 31.0197 12.13 31.1962C12.0452 31.4612 12.1631 33.1354 12.309 33.8504C12.3789 34.1614 12.4783 34.465 12.6058 34.757C12.7119 34.9754 12.7979 35.1938 12.7979 35.2405C12.7979 35.3596 13.0626 35.8096 13.5061 36.4584C13.9031 37.0338 14.638 37.8417 15.0616 38.1593C15.6506 38.6024 16.5573 39.1652 16.6832 39.1652C16.7557 39.1652 16.9211 39.2381 17.0471 39.3242C17.2181 39.4264 17.4068 39.4956 17.6034 39.5282C17.7932 39.5575 17.9795 39.6063 18.1594 39.6736C18.4562 39.8059 21.3895 39.8458 21.5417 39.7135C21.5943 39.6736 21.8262 39.6007 22.0646 39.5545C22.3029 39.5082 22.5734 39.4154 22.6667 39.356C22.8058 39.2631 23.0836 39.1508 23.2558 39.1308C23.2956 39.124 23.461 39.0184 24.2421 38.5087C24.8044 38.1381 25.4002 37.5885 25.9562 36.9202C26.3069 36.5033 27.0282 35.3253 27.0282 35.1815C27.0282 35.1285 27.108 34.9368 27.2004 34.7575C27.4519 34.2745 27.5579 33.5993 27.6177 31.9845C27.677 30.4821 27.6508 30.2437 27.4387 30.3307C27.2933 30.3837 24.659 30.3837 24.5729 30.3239C24.533 30.3039 24.4457 30.337 24.3744 30.4032C24.2616 30.5092 24.2472 30.6152 24.2472 31.6809C24.2472 32.9107 24.2141 33.1104 23.8435 33.9178C23.7774 34.0701 23.7163 34.2291 23.7163 34.2685C23.7163 34.4208 22.4717 35.6454 22.1278 35.824C21.5765 36.1153 21.4128 36.1815 20.923 36.3138C20.2216 36.5059 19.5397 36.4991 18.7603 36.2807C18.4164 36.1882 18.0394 36.036 17.9266 35.9499C17.8074 35.8651 17.6815 35.7909 17.642 35.7909C17.5954 35.7909 17.4499 35.6849 17.3028 35.5594C17.1556 35.4338 17.0246 35.3278 16.9915 35.3278C16.8991 35.3278 16.1111 34.3614 16.0386 34.1561C15.9988 34.0501 15.9538 33.9246 15.9258 33.8716C15.629 33.1435 15.562 32.8589 15.5289 32.25C15.4958 31.6609 15.5158 31.5291 15.6612 31.0919C15.746 30.8205 15.8465 30.5028 15.8732 30.3837C15.8932 30.2709 15.9581 30.1386 16.0123 30.0923C16.041 30.0663 16.064 30.0346 16.08 29.9993C16.0959 29.964 16.1045 29.9258 16.1052 29.8871C16.1052 29.6818 17.6077 28.2455 17.8261 28.2455C17.8723 28.2455 17.9783 28.1862 18.0707 28.1132C18.1632 28.0403 18.3091 27.9809 18.3884 27.9809C18.4677 27.9809 18.6534 27.9279 18.7921 27.8618C19.0304 27.7558 19.5732 27.7494 25.9668 27.7095C33.5321 27.6633 33.8628 27.6502 34.5447 27.299C34.7364 27.1998 34.9353 27.1205 34.9947 27.1205C35.127 27.1205 35.6897 26.8092 36.4242 26.3394C37.0331 25.9425 37.768 25.2936 37.9797 24.9561C38.0526 24.8437 38.2379 24.5855 38.3901 24.387C38.5492 24.1818 38.8201 23.725 39.0055 23.3743C39.1908 23.0169 39.3697 22.6924 39.4096 22.6462C39.4495 22.6 39.4622 22.5338 39.4427 22.5008C39.4227 22.4609 39.449 22.3087 39.5088 22.1501C39.6742 21.6933 39.7471 21.1438 39.7802 20.0387C39.8065 19.079 39.7934 18.9598 39.6081 18.1389C39.4953 17.6558 39.3299 17.113 39.2374 16.9345C39.1446 16.7492 39.072 16.5702 39.072 16.5372C39.072 16.4579 38.6285 15.7497 38.5025 15.6174C38.4415 15.551 38.3963 15.4717 38.3702 15.3854C38.3503 15.3061 38.2311 15.1475 38.1187 15.0415C38.0064 14.9287 37.715 14.631 37.4767 14.3795C36.8347 13.7044 36.6761 13.5653 36.4708 13.5191C36.3431 13.4734 36.2292 13.3959 36.1396 13.2939C36.0603 13.1947 35.8682 13.0755 35.7096 13.0293C35.551 12.9831 35.1469 12.8173 34.8161 12.6587C34.4769 12.5064 34.0749 12.3618 33.9095 12.3343C33.7437 12.3143 33.4659 12.2681 33.2806 12.235C33.1017 12.1952 32.142 12.1689 31.1493 12.1689L29.3555 12.1621L29.1401 12.6299Z" fill="#2E8902"/>
<path d="M7.54085 17.5143C7.51455 17.5474 7.40175 17.5936 7.28259 17.6204C6.6889 17.7395 5.88615 18.3816 5.6614 18.9244C5.42307 19.4803 5.37007 19.9039 5.4693 20.3407C5.52211 20.5623 5.59302 20.7792 5.68133 20.9891C5.86028 21.3597 6.33015 21.8495 6.68763 22.0285C6.8598 22.1133 7.0184 22.207 7.02688 22.2333C7.04003 22.2668 9.87955 22.2863 13.3344 22.2863H19.6156L19.6025 19.884L19.5825 17.488L13.5791 17.4681C9.9368 17.4613 7.56078 17.4813 7.54085 17.5143Z" fill="#2E8902"/>
<path d="M21.0023 19.7645C21.0023 21.0367 20.9828 22.1206 20.9628 22.1816C20.923 22.2809 21.4658 22.2872 26.8068 22.2872H32.6911L33.0482 22.1176C33.4786 21.9056 34.0346 21.3543 34.2398 20.926C34.3721 20.6482 34.3921 20.5019 34.3921 19.9201C34.3921 19.4897 34.3653 19.2119 34.3191 19.1653C34.2729 19.1167 34.2449 19.0536 34.2398 18.9868C34.2398 18.8277 33.7309 18.2056 33.4256 17.994C33.2217 17.8666 33.0042 17.7622 32.7772 17.6828C32.5783 17.6234 32.393 17.5441 32.36 17.5174C32.3269 17.4907 29.7524 17.458 26.6482 17.458H21.0023V19.7645Z" fill="#2E8902"/>
<path d="M51.9694 11.4294C49.4722 11.4889 48.4839 11.556 48.3653 11.6734C48.3193 11.7194 48.3193 12.1082 48.3784 12.9188C48.5168 14.9482 48.5367 21.0107 48.418 23.6283C48.3585 24.8783 48.3125 26.3674 48.3125 26.9339C48.3125 27.929 48.3193 27.9619 48.4641 28.0409C48.5759 28.1067 49.156 28.1253 50.9021 28.1253C52.8657 28.1253 53.2018 28.1122 53.2545 28.0265C53.3271 27.921 53.3006 27.2953 53.1557 25.5884C53.0042 23.8225 52.9713 22.808 53.0502 22.6036L53.1228 22.4259H53.8279C54.6249 22.4259 54.9547 22.4981 55.1982 22.7092C55.3566 22.854 56.1536 24.6791 56.9904 26.8406C57.2213 27.4317 57.432 27.9476 57.4649 27.9805C57.5772 28.0924 58.5259 28.1519 60.0744 28.1519C61.5436 28.1452 62.2951 28.0991 62.3871 28.0067C62.5058 27.8948 62.0181 26.7879 60.3708 23.4142C59.903 22.4588 59.5408 21.6352 59.5687 21.5955C59.5948 21.5494 59.8519 21.3253 60.1487 21.0889C61.3608 20.1136 61.8421 19.2967 62.0528 17.8866C62.4019 15.6068 61.8092 13.8079 60.3526 12.7141C59.3972 11.9964 58.1847 11.5607 56.7417 11.429C55.9231 11.3504 55.5938 11.3504 51.9694 11.4294ZM55.4554 15.0158C56.7219 15.2396 57.3003 15.8179 57.4396 17.0055C57.5316 17.803 57.2484 18.5739 56.7278 18.9231C56.2997 19.2186 55.8581 19.3381 55.0935 19.3778C54.4544 19.4107 53.2883 19.325 53.0249 19.2262C52.9257 19.1869 52.9126 19.0088 52.9404 17.2166C52.9599 15.0487 52.9468 15.1146 53.3884 14.996C53.7422 14.8891 54.8225 14.9018 55.4554 15.0158Z" fill="#2E8902"/>
<path d="M98.0651 11.4822C97.9806 11.535 97.9806 11.66 98.052 12.3587C98.2365 14.1445 98.2563 14.934 98.2563 21.3199V27.9553L98.4011 28.0397C98.6055 28.1583 102.295 28.1664 102.412 28.0465C102.471 27.9869 102.491 26.511 102.496 22.182C102.509 16.7392 102.589 13.7477 102.766 11.9948C102.793 11.7381 102.78 11.5798 102.727 11.5139C102.668 11.435 102.266 11.4219 100.401 11.4219C99.172 11.4231 98.1178 11.4493 98.0651 11.4822Z" fill="#2E8902"/>
<path d="M118.149 12.8521C118.096 12.9787 118.07 13.6495 118.064 15.0005C118.064 16.8716 118.058 16.9704 117.938 17.0629C117.865 17.1156 117.7 17.1549 117.575 17.1549C117.413 17.1606 117.252 17.1827 117.094 17.2208L116.844 17.2934L116.85 18.7824C116.85 19.7576 116.877 20.3048 116.923 20.3639C116.962 20.4167 117.14 20.4483 117.377 20.4483C117.766 20.4483 118.082 20.5471 118.115 20.6725C118.122 20.7122 118.128 22.0366 118.128 23.6113V26.4775L118.313 26.8532C118.544 27.3277 119.038 27.7757 119.532 27.9669C120.56 28.3558 122.016 28.3891 123.321 28.059C124.21 27.8352 125.263 27.3079 125.305 27.0706C125.318 26.998 125.384 26.3985 125.444 25.7332C125.562 24.4219 125.549 24.3362 125.219 24.3362C125.127 24.3362 124.797 24.3953 124.488 24.4679C123.809 24.6262 123.433 24.6326 122.992 24.5008C122.57 24.3742 122.353 24.1251 122.254 23.6772C122.175 23.2972 122.156 20.7185 122.235 20.5999C122.274 20.5408 122.669 20.5155 123.697 20.5011L125.114 20.4813L125.154 18.9656C125.173 18.1289 125.213 17.3516 125.238 17.2347C125.337 16.8125 125.291 16.8062 123.729 16.859C122.451 16.8986 122.332 16.8986 122.246 16.7931C122.128 16.6546 122.12 16.0881 122.207 14.4145C122.266 13.3338 122.259 13.281 122.141 13.2481C122.075 13.2282 121.601 13.1636 121.093 13.1032C120.586 13.0429 119.802 12.9251 119.354 12.8394C118.307 12.6283 118.241 12.6283 118.149 12.8521Z" fill="#2E8902"/>
<path d="M67.3891 16.108C66.2148 16.2718 65.1256 16.8129 64.2857 17.6498C63.2577 18.6841 62.6911 19.9756 62.5463 21.6183C62.4078 23.1732 62.7439 24.7086 63.4422 25.7628C64.582 27.4828 66.4932 28.4251 68.8389 28.4251C70.7235 28.4251 72.2454 27.9307 73.2013 27.015L73.5504 26.6722L73.4778 26.4151C73.333 25.8945 72.3907 24.1813 72.1733 24.0509C72.1336 24.0247 71.9423 24.1104 71.7447 24.2354C71.2242 24.5647 70.8092 24.769 70.2819 24.9472C69.6625 25.1515 68.437 25.1583 67.8755 24.9535C67.3878 24.7758 67.0058 24.5254 66.8014 24.2616C66.6368 24.0441 66.4721 23.6819 66.5182 23.6422C66.5312 23.6291 67.1181 23.57 67.8231 23.5156C70.0303 23.3374 73.1337 23.0279 73.3051 22.9621C73.5094 22.8827 73.7138 22.6193 73.8193 22.3162C73.9312 21.967 73.8586 20.6625 73.6872 20.0693C73.4237 19.1667 73.002 18.4617 72.2708 17.6908C71.4686 16.8536 70.6298 16.3795 69.5625 16.162C68.9377 16.0291 68.0747 16.0092 67.3891 16.108ZM68.6084 19.2047C69.0263 19.4044 69.3651 19.7386 69.5705 20.1537C69.7613 20.5489 69.7816 20.9445 69.6165 21.0365C69.4717 21.1091 68.0747 21.2936 67.1784 21.3464C66.3809 21.3992 66.302 21.3662 66.302 20.9377C66.302 19.653 67.5407 18.7238 68.6084 19.2047Z" fill="#2E8902"/>
<path d="M130.515 16.108C129.34 16.2717 128.251 16.8128 127.411 17.6498C126.383 18.6841 125.816 19.9756 125.671 21.6183C125.533 23.1732 125.869 24.7086 126.568 25.7628C127.707 27.4828 129.618 28.4251 131.964 28.4251C133.848 28.4251 135.371 27.9307 136.326 27.015L136.675 26.6722L136.603 26.4151C136.458 25.8945 135.516 24.1813 135.298 24.0509C135.259 24.0247 135.068 24.1104 134.87 24.2354C134.35 24.5647 133.934 24.769 133.407 24.9472C132.788 25.1515 131.562 25.1583 131.001 24.9535C130.513 24.7758 130.131 24.5254 129.927 24.2616C129.762 24.0441 129.597 23.6819 129.644 23.6422C129.657 23.6291 130.243 23.57 130.948 23.5156C133.156 23.3374 136.259 23.0279 136.431 22.9621C136.634 22.8827 136.839 22.6193 136.944 22.3162C137.056 21.967 136.984 20.6625 136.813 20.0693C136.549 19.1667 136.127 18.4617 135.396 17.6908C134.594 16.8536 133.755 16.3795 132.687 16.162C132.063 16.0291 131.2 16.0092 130.515 16.108ZM131.733 19.2047C132.151 19.4044 132.49 19.7386 132.696 20.1537C132.887 20.5489 132.907 20.9445 132.742 21.0365C132.597 21.1091 131.2 21.2936 130.303 21.3464C129.506 21.3992 129.427 21.3662 129.427 20.9377C129.427 19.653 130.666 18.7238 131.733 19.2047Z" fill="#2E8902"/>
<path d="M90.0917 16.3319C88.0556 16.6616 86.4411 17.9927 85.7433 19.9166C85.4271 20.78 85.3283 21.5112 85.3675 22.6578C85.4072 23.7846 85.506 24.2393 85.8817 25.0495C86.6417 26.6837 87.9572 27.7447 89.8156 28.2061C90.1449 28.2906 90.5333 28.318 91.3443 28.318C92.2997 28.3112 92.5104 28.2914 93.0753 28.1398C94.0965 27.8701 94.8062 27.4546 95.5661 26.7103C96.2121 26.0712 96.5794 25.5308 96.8643 24.7991C97.3452 23.5748 97.4376 21.9528 97.1079 20.5427C96.6469 18.5585 95.0785 16.9711 93.0622 16.4505C92.2647 16.2462 90.9285 16.1938 90.0917 16.3319ZM92.187 20.1142C93.0373 20.549 93.5447 21.6497 93.3797 22.7038C93.2087 23.8045 92.464 24.5754 91.5086 24.6543C90.6254 24.7202 89.9072 24.2853 89.4855 23.43C89.2811 23.0213 89.2681 22.9491 89.2681 22.2964C89.2681 21.6438 89.2811 21.572 89.4855 21.1633C89.7426 20.636 90.237 20.1682 90.6781 20.0234C91.1066 19.8837 91.8248 19.9297 92.187 20.1142Z" fill="#2E8902"/>
<path d="M74.1972 16.8258C74.0921 16.8916 74.0785 17.0234 74.0785 18.0712C74.0785 19.2309 74.0785 19.2508 74.25 19.5011C74.4872 19.8435 74.9419 20.3708 75.9104 21.4187C76.352 21.8995 76.7125 22.3213 76.7125 22.3542C76.7125 22.3935 76.159 23.0656 75.4806 23.85C74.8085 24.6407 74.2141 25.3589 74.1626 25.4513C74.1035 25.578 74.0781 25.9385 74.0781 26.7601V27.9L74.3285 28.0119C74.6911 28.1765 77.1951 28.1765 77.4526 28.0119C77.5446 27.9523 78.0652 27.333 78.5988 26.6478C79.1392 25.9558 79.6007 25.4024 79.6268 25.4091C79.653 25.4159 80.0617 25.9693 80.5362 26.6415C81.0369 27.3465 81.4848 27.9131 81.6102 27.9924C81.8015 28.1111 81.9264 28.1242 83.2707 28.1242C84.5558 28.1242 84.7483 28.1111 84.9049 28.0055L85.0827 27.8936V26.7339C85.0827 25.9829 85.0565 25.5282 85.0037 25.4357C84.964 25.3568 84.4701 24.7573 83.9035 24.1113C83.3365 23.4591 82.7767 22.8199 82.6581 22.6814C82.5129 22.51 82.4537 22.3981 82.493 22.3323C82.5196 22.2863 83.0334 21.6863 83.6329 21.0011C84.2324 20.3227 84.799 19.6569 84.9045 19.5383L85.0822 19.3078V18.135C85.0822 16.784 85.0691 16.7578 84.5684 16.7578C84.397 16.7578 83.6396 16.7907 82.8751 16.8237L81.4912 16.8895L81.2801 17.1336C81.1615 17.2716 80.7528 17.7922 80.3707 18.2865C79.9886 18.7872 79.653 19.1959 79.626 19.1959C79.5998 19.1891 79.1515 18.6893 78.6246 18.0822C78.0973 17.4696 77.5966 16.9355 77.5041 16.9026C77.2677 16.8059 74.3424 16.7401 74.1972 16.8258Z" fill="#2E8902"/>
<path d="M104.638 16.8738C104.453 17.0848 104.4 17.2537 104.262 17.9875C104.071 18.9956 103.992 20.0697 103.992 21.6444C103.992 24.926 104.288 26.3361 105.178 27.2454C105.769 27.8449 106.502 28.135 107.616 28.2076C108.683 28.2735 109.606 27.9505 111.056 27.0082C111.787 26.5273 111.735 26.5075 111.833 27.3459C111.899 27.9585 111.939 28.0708 112.084 28.1367C112.268 28.2156 114.93 28.2485 115.451 28.1764C116.268 28.0577 116.215 28.3144 116.116 25.0856C116.05 22.6872 116.05 22.0037 116.149 19.7661C116.208 18.3493 116.241 17.1304 116.215 17.0447C116.199 16.9957 116.173 16.9507 116.137 16.9131C116.102 16.8755 116.059 16.8462 116.011 16.8273C115.747 16.7218 112.085 16.7429 111.939 16.8472C111.833 16.9261 111.82 17.1895 111.787 20.2406L111.748 23.5548L111.563 23.8317C111.352 24.1547 110.812 24.5828 110.463 24.7081C109.718 24.9716 108.895 24.6486 108.591 23.9702C108.394 23.5087 108.321 22.4875 108.361 20.4513C108.38 19.1666 108.427 18.3231 108.506 17.7916L108.618 17.0008L108.473 16.8822C108.341 16.7767 108.163 16.7636 106.531 16.7636C104.908 16.7606 104.73 16.7737 104.638 16.8738Z" fill="#2E8902"/>
</svg>
