<svg viewBox="0 0 142 42" fill="none" xmlns="http://www.w3.org/2000/svg">
<path d="M19.7004 0.582835C19.291 0.623904 18.8139 0.713907 18.6435 0.773763C18.4731 0.833619 18.28 0.88998 18.2136 0.88998C18.0091 0.88998 16.9387 1.42868 16.3318 1.83763C15.7202 2.24701 14.4156 3.48782 14.2312 3.84259C14.1198 4.04921 13.997 4.24947 13.8633 4.44246C13.713 4.65392 13.5632 4.93354 13.5221 5.05413C13.4611 5.23599 13.3881 5.41361 13.3036 5.58584C13.223 5.76133 13.159 5.94403 13.1127 6.13153C13.0852 6.26785 13.0105 6.56101 12.9489 6.78689C12.8261 7.23691 12.6898 9.54202 12.7579 9.97849C12.8056 10.2786 13.0511 10.4626 13.2014 10.3127C13.3102 10.2035 15.7857 10.1965 15.8949 10.3057C15.9823 10.3931 16.2562 10.2717 16.2632 10.1419C16.2632 10.0943 16.2632 9.62372 16.2562 9.09332C16.2493 8.56291 16.2833 7.93377 16.3314 7.69522C16.4266 7.18404 16.9177 6.09964 17.1903 5.80648C17.2926 5.6907 17.4564 5.50632 17.5451 5.39054C17.6338 5.27476 17.8724 5.06985 18.0838 4.92655C18.2883 4.79023 18.5609 4.6063 18.6771 4.5246C19.2975 4.10167 20.9342 3.8972 21.8137 4.13575C22.0387 4.19692 22.3183 4.27206 22.4411 4.29959C22.5638 4.32712 22.7906 4.44945 22.9527 4.56523C23.1119 4.68407 23.2781 4.79334 23.4503 4.89247C23.7999 5.09738 24.5893 5.99041 24.678 6.27702C24.7181 6.39825 24.7755 6.51304 24.8484 6.61781C25.1481 7.06782 25.2233 7.42914 25.2233 8.45893C25.2233 9.5158 25.1481 9.83649 24.7322 10.6618C24.3438 11.4321 23.1366 12.5095 22.5573 12.5982C22.414 12.6187 22.2436 12.6733 22.189 12.7209C21.8478 13.0006 22.0579 12.9936 14.381 13.0346C6.84574 13.0687 6.44335 13.0823 5.85702 13.3348C5.74779 13.3894 5.414 13.5393 5.12739 13.669C4.83423 13.8053 4.49999 13.9347 4.38465 13.9622C4.26251 13.9897 4.15411 14.0597 4.07882 14.1597C4.01765 14.2471 3.86036 14.3506 3.72929 14.3987C3.45011 14.486 1.77239 16.1306 1.69725 16.3896C1.65751 16.4943 1.59985 16.5913 1.52685 16.6762C0.954068 17.3443 0.415364 18.9333 0.306137 20.2563C0.231426 21.1834 0.306137 22.3495 0.483521 22.9839C0.543906 23.1841 0.589467 23.3886 0.619835 23.5955C0.64037 23.7266 0.687992 23.8751 0.729061 23.9232C0.76314 23.9708 0.940525 24.2911 1.11791 24.6253C1.32315 25.0223 1.55388 25.4055 1.80866 25.7726C2.16342 26.2707 3.26137 27.4093 3.40424 27.4163C3.4453 27.4228 3.60914 27.532 3.77954 27.6618C4.08537 27.8934 4.97273 28.3504 5.41618 28.5072C5.54726 28.5548 5.77751 28.6505 5.92736 28.7187C6.35029 28.9096 7.80256 29.0529 9.39858 29.0529C10.9461 29.0529 11.2122 28.9983 11.2122 28.6911C11.2122 28.6094 11.2996 28.4321 11.4101 28.3027C11.5123 28.1717 11.6285 27.989 11.6556 27.8934C11.7714 27.5185 13.1625 25.8207 13.4011 25.7591C13.4692 25.7385 13.5321 25.6909 13.5321 25.6499C13.5321 25.5957 12.6933 25.5751 10.6682 25.5751C9.09973 25.5751 7.74096 25.5476 7.65358 25.5135C7.47003 25.4534 7.28334 25.4034 7.09434 25.3637C6.87588 25.3161 6.58971 25.2068 6.47393 25.1251C6.34075 25.0394 6.19618 24.9727 6.04445 24.9272C5.92824 24.9067 5.79891 24.8398 5.75085 24.7773C5.59961 24.6342 5.44032 24.4999 5.27375 24.375C5.0553 24.2111 4.85782 24.0066 4.83685 23.918C4.80976 23.8363 4.67301 23.6453 4.53101 23.495C4.3838 23.3365 4.26801 23.1515 4.18979 22.9498C4.14527 22.8064 4.08825 22.6672 4.0194 22.5338C3.66987 21.9812 3.71924 19.825 4.08056 19.3833C4.16795 19.2811 4.28547 19.0626 4.35363 18.8992C4.50349 18.5104 4.67388 18.2784 5.17851 17.7877C5.69711 17.2761 6.06499 17.017 6.37213 16.9489C6.50284 16.9192 6.62863 16.8709 6.74569 16.8056C6.83292 16.7477 6.93428 16.7148 7.03885 16.7103C7.14601 16.7042 7.25047 16.6744 7.34469 16.6229C7.46046 16.5613 9.11066 16.5356 14.6886 16.5067C21.2623 16.4726 21.9308 16.4591 22.4284 16.3499C23.0899 16.2 23.6081 16.044 23.7924 15.9274C23.8988 15.8721 24.0107 15.8282 24.1262 15.7963C24.2595 15.7587 24.3844 15.6963 24.4945 15.6124C24.5902 15.5442 24.6925 15.4813 24.7265 15.4813C24.9922 15.4813 26.8267 13.8927 27.1474 13.3811C27.2441 13.2301 27.3486 13.0842 27.4607 12.9442C27.8102 12.4872 28.3065 11.3486 28.5726 10.4005C28.743 9.78887 28.7836 7.78216 28.6408 7.00491C28.4699 6.11144 28.1768 5.26603 27.836 4.6998C27.4065 3.98414 27.3384 3.87492 27.0247 3.47952C26.6223 2.97489 25.7139 2.12249 25.4081 1.95035C25.2475 1.85249 25.0926 1.74557 24.9441 1.6301C24.7532 1.48024 24.5417 1.36402 24.4806 1.36402C24.4194 1.36402 24.2215 1.28887 24.0436 1.19363C23.8658 1.09838 23.6889 1.02324 23.6504 1.02324C23.612 1.02324 23.3844 0.941535 23.1388 0.838862C22.8186 0.70779 22.4708 0.641381 21.8159 0.573223C20.7778 0.474046 20.6891 0.474046 19.7004 0.582835Z" fill="white"/>
<path d="M30.2967 13.5122C30.1739 13.7778 30.0035 14.0509 29.9148 14.119C29.8331 14.1802 29.6964 14.3711 29.6217 14.535C29.4172 14.9719 29.1511 15.3122 28.5377 15.9191C28.2319 16.2123 27.985 16.4648 27.985 16.4783C27.985 16.4919 29.3761 16.5124 31.0744 16.5194C34.1087 16.5465 34.1633 16.5465 34.5316 16.7033C34.7361 16.785 35.0087 16.8873 35.1385 16.9283C35.2819 16.9694 35.4194 17.029 35.5474 17.1057C35.8532 17.3036 36.7135 18.0127 36.7135 18.0739C36.7135 18.108 36.8363 18.2784 36.9866 18.4492C37.1369 18.62 37.2592 18.8105 37.2592 18.8651C37.2592 18.9198 37.3409 19.1172 37.4431 19.3082C37.6682 19.7516 37.7433 20.0719 37.7844 20.8631C37.8184 21.5381 37.7228 22.2201 37.5594 22.4722C37.5047 22.5539 37.4161 22.7724 37.3614 22.9563C37.3068 23.1542 37.1775 23.3793 37.0477 23.495C36.932 23.6112 36.7887 23.7952 36.7419 23.918C36.6873 24.0407 36.5099 24.2238 36.305 24.3549C36.1206 24.4776 35.9232 24.641 35.8615 24.7297C35.8069 24.8119 35.6641 24.9006 35.5413 24.9276C35.3783 24.9752 35.2223 25.0439 35.0773 25.1321C34.9462 25.2143 34.6684 25.3165 34.4656 25.3641C34.2629 25.4117 33.9951 25.4799 33.8723 25.514C33.736 25.555 31.0219 25.5821 26.8145 25.5821C23.0502 25.5821 19.7157 25.6027 19.395 25.6367C18.9996 25.6708 18.6929 25.746 18.4203 25.8687C18.2018 25.971 17.9904 26.0527 17.9497 26.0527C17.827 26.0527 16.7631 26.5914 16.3878 26.8439C16.1969 26.975 16.0129 27.0755 15.9789 27.0755C15.9518 27.0755 15.6293 27.3621 15.2833 27.7168C14.4925 28.5076 13.7284 29.558 13.565 30.0761C13.4917 30.274 13.4074 30.4675 13.3124 30.6559C13.0908 31.106 12.9472 31.5904 12.8877 32.0885C12.8592 32.2746 12.8204 32.459 12.7715 32.6408C12.6841 32.9138 12.8056 34.6387 12.9559 35.3754C13.0279 35.6958 13.1303 36.0085 13.2617 36.3095C13.371 36.5345 13.4597 36.7595 13.4597 36.8075C13.4597 36.9303 13.7323 37.3939 14.1893 38.0623C14.5982 38.6552 15.3554 39.4875 15.7919 39.8148C16.3987 40.2713 17.3328 40.8511 17.4626 40.8511C17.5373 40.8511 17.7077 40.9262 17.8374 41.0149C18.0137 41.1202 18.2081 41.1915 18.4107 41.2251C18.6062 41.2553 18.7981 41.3056 18.9835 41.375C19.2893 41.5113 22.3114 41.5523 22.4682 41.416C22.5224 41.3749 22.7614 41.2998 23.0069 41.2522C23.2525 41.2046 23.5312 41.1089 23.6273 41.0477C23.7706 40.952 24.0568 40.8362 24.2342 40.8157C24.2753 40.8087 24.4456 40.6999 25.2504 40.1748C25.8298 39.7929 26.4436 39.2267 27.0164 38.5381C27.3777 38.1086 28.1209 36.8949 28.1209 36.7468C28.1209 36.6922 28.203 36.4947 28.2983 36.3099C28.5574 35.8123 28.6666 35.1167 28.7282 33.453C28.7894 31.905 28.7623 31.6595 28.5438 31.749C28.394 31.8037 25.6799 31.8037 25.5912 31.7421C25.5501 31.7215 25.4601 31.7556 25.3867 31.8238C25.2705 31.933 25.2557 32.0422 25.2557 33.1402C25.2557 34.4072 25.2216 34.613 24.8397 35.4448C24.7716 35.6017 24.7087 35.7655 24.7087 35.8062C24.7087 35.963 23.4263 37.2248 23.072 37.4087C22.504 37.7089 22.3354 37.777 21.8308 37.9133C21.1081 38.1113 20.4056 38.1043 19.6025 37.8793C19.2482 37.784 18.8598 37.6272 18.7436 37.5385C18.6208 37.4511 18.4911 37.3746 18.4504 37.3746C18.4024 37.3746 18.2525 37.2654 18.1009 37.1361C17.9493 37.0068 17.8143 36.8975 17.7802 36.8975C17.685 36.8975 16.8732 35.9018 16.7985 35.6904C16.7574 35.5811 16.7111 35.4518 16.6823 35.3972C16.3764 34.647 16.3074 34.3539 16.2733 33.7265C16.2392 33.1196 16.2598 32.9837 16.4096 32.5333C16.497 32.2537 16.6006 31.9264 16.6281 31.8037C16.6486 31.6874 16.7155 31.5511 16.7714 31.5035C16.8009 31.4766 16.8246 31.444 16.8411 31.4076C16.8575 31.3713 16.8664 31.332 16.8671 31.292C16.8671 31.0806 18.415 29.6008 18.64 29.6008C18.6877 29.6008 18.7969 29.5396 18.8921 29.4645C18.9874 29.3893 19.1377 29.3282 19.2194 29.3282C19.3011 29.3282 19.4924 29.2735 19.6353 29.2054C19.8809 29.0962 20.4401 29.0896 27.0273 29.0485C34.8217 29.0009 35.1625 28.9874 35.865 28.6256C36.0625 28.5234 36.2674 28.4417 36.3286 28.4417C36.4649 28.4417 37.0447 28.121 37.8014 27.6369C38.4288 27.228 39.186 26.5595 39.404 26.2117C39.4791 26.0959 39.6701 25.8299 39.8269 25.6254C39.9907 25.4139 40.2699 24.9434 40.4608 24.5821C40.6518 24.2137 40.8362 23.8795 40.8772 23.8319C40.9183 23.7843 40.9314 23.7161 40.9113 23.682C40.8908 23.641 40.9179 23.4841 40.9795 23.3207C41.1499 22.8502 41.225 22.2839 41.2591 21.1454C41.2862 20.1566 41.2726 20.0339 41.0817 19.188C40.9655 18.6904 40.7951 18.1311 40.6998 17.9472C40.6042 17.7563 40.5294 17.5719 40.5294 17.5378C40.5294 17.4561 40.0724 16.7265 39.9427 16.5902C39.8799 16.5218 39.8333 16.4401 39.8064 16.3512C39.7858 16.2695 39.6631 16.1061 39.5473 15.9969C39.4315 15.8806 39.1313 15.5739 38.8858 15.3149C38.2243 14.6193 38.0609 14.476 37.8495 14.4284C37.7179 14.3812 37.6005 14.3014 37.5082 14.1964C37.4265 14.0941 37.2286 13.9714 37.0652 13.9237C36.9018 13.8761 36.4854 13.7053 36.1447 13.5419C35.7951 13.385 35.381 13.2361 35.2106 13.2077C35.0397 13.1871 34.7536 13.1395 34.5626 13.1054C34.3783 13.0644 33.3895 13.0373 32.3667 13.0373L30.5186 13.0303L30.2967 13.5122Z" fill="white"/>
<path d="M8.04642 18.5441C8.01934 18.5782 7.90312 18.6258 7.78035 18.6533C7.16868 18.7761 6.34162 19.4376 6.11006 19.9968C5.86452 20.5696 5.8099 21.0061 5.91214 21.4561C5.96655 21.6844 6.03961 21.9078 6.13059 22.1241C6.31497 22.506 6.79906 23.0106 7.16737 23.195C7.34475 23.2823 7.50816 23.3789 7.51689 23.406C7.53044 23.4405 10.456 23.4606 14.0154 23.4606H20.4869L20.4733 20.9855L20.4528 18.517L14.2675 18.4965C10.5149 18.4895 8.06696 18.51 8.04642 18.5441Z" fill="white"/>
<path d="M21.9176 20.8631C21.9176 22.1739 21.8975 23.2906 21.877 23.3535C21.8359 23.4557 22.3951 23.4623 27.898 23.4623H33.9605L34.3283 23.2875C34.7718 23.0691 35.3446 22.5011 35.556 22.0598C35.6923 21.7737 35.7129 21.6229 35.7129 21.0235C35.7129 20.58 35.6854 20.2939 35.6377 20.2458C35.5901 20.1958 35.5612 20.1308 35.556 20.0619C35.556 19.898 35.0317 19.2571 34.7172 19.0391C34.507 18.9078 34.283 18.8002 34.0491 18.7184C33.8442 18.6572 33.6533 18.5755 33.6192 18.548C33.5852 18.5205 30.9327 18.4868 27.7345 18.4868H21.9176V20.8631Z" fill="white"/>
<path d="M53.8263 12.2754C51.2534 12.3367 50.2352 12.4059 50.113 12.5268C50.0656 12.5742 50.0656 12.9748 50.1264 13.81C50.2691 15.9008 50.2896 22.1469 50.1673 24.8437C50.106 26.1317 50.0586 27.6658 50.0586 28.2495C50.0586 29.2747 50.0656 29.3086 50.2147 29.39C50.33 29.4578 50.9277 29.477 52.7267 29.477C54.7497 29.477 55.0959 29.4635 55.1503 29.3752C55.2251 29.2665 55.1977 28.6218 55.0485 26.8633C54.8924 25.0438 54.8584 23.9986 54.9398 23.7881L55.0146 23.6049H55.741C56.5622 23.6049 56.9019 23.6793 57.1529 23.8968C57.316 24.046 58.1372 25.9264 58.9993 28.1534C59.2372 28.7623 59.4543 29.2939 59.4882 29.3278C59.6039 29.443 60.5813 29.5044 62.1767 29.5044C63.6904 29.4974 64.4646 29.45 64.5595 29.3547C64.6817 29.2395 64.1793 28.099 62.4821 24.6232C62.0001 23.6389 61.6269 22.7903 61.6556 22.7494C61.6826 22.702 61.9475 22.471 62.2533 22.2274C63.5021 21.2226 63.9979 20.381 64.215 18.9282C64.5747 16.5794 63.964 14.726 62.4634 13.599C61.479 12.8596 60.2298 12.4107 58.7431 12.275C57.8997 12.1941 57.5604 12.1941 53.8263 12.2754ZM57.4178 15.9704C58.7227 16.201 59.3186 16.7969 59.4621 18.0204C59.5569 18.8421 59.2651 19.6363 58.7288 19.996C58.2877 20.3005 57.8327 20.4236 57.045 20.4645C56.3865 20.4984 55.1851 20.4101 54.9137 20.3083C54.8115 20.2679 54.798 20.0843 54.8267 18.2379C54.8467 16.0044 54.8332 16.0722 55.2882 15.95C55.6527 15.84 56.7658 15.853 57.4178 15.9704Z" fill="white"/>
<path d="M101.321 12.3298C101.234 12.3841 101.234 12.5129 101.307 13.2328C101.498 15.0727 101.518 15.8861 101.518 22.4653V29.3017L101.667 29.3887C101.878 29.5109 105.679 29.5192 105.799 29.3956C105.861 29.3343 105.881 27.8137 105.886 23.3535C105.9 17.746 105.982 14.6638 106.165 12.8578C106.192 12.5934 106.178 12.4303 106.124 12.3624C106.063 12.2811 105.649 12.2676 103.728 12.2676C102.461 12.2689 101.375 12.2959 101.321 12.3298Z" fill="white"/>
<path d="M122.009 13.7415C121.954 13.8719 121.927 14.5631 121.922 15.955C121.922 17.8828 121.915 17.9845 121.791 18.0798C121.716 18.1342 121.547 18.1746 121.417 18.1746C121.25 18.1805 121.084 18.2033 120.922 18.2425L120.664 18.3173L120.671 19.8514C120.671 20.8562 120.698 21.4199 120.745 21.4808C120.786 21.5352 120.969 21.5678 121.214 21.5678C121.614 21.5678 121.94 21.6696 121.974 21.7988C121.981 21.8396 121.988 23.2041 121.988 24.8265V27.7795L122.178 28.1666C122.416 28.6555 122.925 29.117 123.434 29.3141C124.493 29.7147 125.993 29.749 127.337 29.4089C128.254 29.1784 129.338 28.6351 129.382 28.3906C129.395 28.3158 129.463 27.6982 129.524 27.0127C129.647 25.6617 129.633 25.5734 129.293 25.5734C129.199 25.5734 128.858 25.6343 128.54 25.7091C127.841 25.8722 127.453 25.8787 126.999 25.743C126.564 25.6125 126.34 25.3559 126.239 24.8944C126.157 24.5029 126.137 21.8462 126.218 21.7239C126.259 21.663 126.666 21.6369 127.725 21.6222L129.185 21.6017L129.225 20.0402C129.246 19.1781 129.287 18.3773 129.312 18.2568C129.414 17.8219 129.367 17.8153 127.758 17.8697C126.441 17.9106 126.319 17.9106 126.23 17.8019C126.108 17.6592 126.1 17.0755 126.189 15.3513C126.251 14.2378 126.244 14.1834 126.122 14.1495C126.054 14.129 125.565 14.0625 125.042 14.0003C124.52 13.9381 123.712 13.8167 123.25 13.7284C122.172 13.5109 122.104 13.5109 122.009 13.7415Z" fill="white"/>
<path d="M69.7125 17.0957C68.5026 17.2645 67.3804 17.822 66.5151 18.6842C65.4559 19.7499 64.8722 21.0804 64.723 22.7729C64.5803 24.3749 64.9266 25.9568 65.646 27.0429C66.8204 28.815 68.7895 29.7858 71.2062 29.7858C73.1478 29.7858 74.7159 29.2765 75.7006 28.333L76.0604 27.9798L75.9855 27.715C75.8364 27.1786 74.8655 25.4136 74.6415 25.2792C74.6006 25.2522 74.4036 25.3405 74.2 25.4692C73.6637 25.8085 73.2361 26.019 72.6929 26.2026C72.0548 26.4131 70.7921 26.4201 70.2136 26.2091C69.7112 26.026 69.3175 25.7681 69.107 25.4962C68.9374 25.2722 68.7677 24.899 68.8152 24.8581C68.8286 24.8446 69.4332 24.7837 70.1596 24.7276C72.4336 24.5441 75.6311 24.2252 75.8076 24.1574C76.0182 24.0756 76.2287 23.8042 76.3374 23.4919C76.4527 23.1322 76.3779 21.7881 76.2013 21.177C75.9299 20.247 75.4953 19.5206 74.742 18.7264C73.9155 17.8639 73.0513 17.3754 71.9517 17.1514C71.3079 17.0144 70.4189 16.9939 69.7125 17.0957ZM70.9687 20.2862C71.3992 20.492 71.7483 20.8363 71.9599 21.264C72.1566 21.6711 72.1774 22.0787 72.0074 22.1735C71.8582 22.2483 70.4189 22.4384 69.4954 22.4928C68.6738 22.5471 68.5924 22.5132 68.5924 22.0717C68.5924 20.7481 69.8686 19.7908 70.9687 20.2862Z" fill="white"/>
<path d="M134.748 17.0957C133.538 17.2644 132.416 17.8219 131.551 18.6842C130.492 19.7499 129.907 21.0804 129.758 22.7729C129.615 24.3749 129.962 25.9568 130.682 27.0429C131.856 28.815 133.825 29.7858 136.242 29.7858C138.183 29.7858 139.751 29.2765 140.736 28.333L141.096 27.9798L141.021 27.715C140.872 27.1786 139.901 25.4136 139.677 25.2792C139.636 25.2522 139.439 25.3405 139.236 25.4692C138.699 25.8085 138.271 26.019 137.728 26.2026C137.09 26.4131 135.827 26.4201 135.249 26.2091C134.747 26.026 134.353 25.7681 134.143 25.4962C133.973 25.2722 133.803 24.899 133.851 24.8581C133.864 24.8446 134.468 24.7837 135.195 24.7276C137.469 24.5441 140.667 24.2252 140.843 24.1574C141.053 24.0756 141.264 23.8042 141.373 23.4919C141.488 23.1322 141.413 21.7881 141.237 21.177C140.965 20.247 140.531 19.5206 139.777 18.7264C138.951 17.8639 138.087 17.3754 136.987 17.1514C136.344 17.0144 135.454 16.9939 134.748 17.0957ZM136.004 20.2862C136.434 20.492 136.783 20.8363 136.995 21.264C137.192 21.6711 137.213 22.0787 137.043 22.1735C136.893 22.2483 135.454 22.4384 134.531 22.4928C133.709 22.5471 133.628 22.5132 133.628 22.0717C133.628 20.7481 134.904 19.7908 136.004 20.2862Z" fill="white"/>
<path d="M93.0983 17.3259C91.0005 17.6656 89.3372 19.0371 88.6182 21.0192C88.2924 21.9087 88.1906 22.6621 88.2311 23.8434C88.2719 25.0044 88.3737 25.4728 88.7608 26.3075C89.5438 27.9913 90.8991 29.0843 92.8139 29.5598C93.1531 29.6467 93.5533 29.675 94.3889 29.675C95.3732 29.6681 95.5902 29.6476 96.1722 29.4915C97.2244 29.2135 97.9556 28.7855 98.7385 28.0187C99.404 27.3601 99.7824 26.8034 100.076 26.0496C100.571 24.7882 100.667 23.1171 100.327 21.6643C99.852 19.6199 98.2361 17.9845 96.1587 17.4481C95.3371 17.2376 93.9604 17.1837 93.0983 17.3259ZM95.2571 21.2228C96.1331 21.6708 96.6559 22.8047 96.4858 23.8909C96.3097 25.0248 95.5424 25.8191 94.5581 25.9004C93.6481 25.9682 92.9082 25.5202 92.4737 24.639C92.2632 24.2179 92.2497 24.1436 92.2497 23.4711C92.2497 22.7987 92.2632 22.7247 92.4737 22.3037C92.7386 21.7604 93.2479 21.2785 93.7025 21.1293C94.144 20.9853 94.8839 21.0327 95.2571 21.2228Z" fill="white"/>
<path d="M76.7242 17.8357C76.6159 17.9035 76.602 18.0392 76.602 19.1188C76.602 20.3136 76.602 20.3341 76.7786 20.592C77.023 20.9448 77.4915 21.4881 78.4893 22.5676C78.9443 23.0631 79.3157 23.4976 79.3157 23.5315C79.3157 23.572 78.7455 24.2644 78.0465 25.0726C77.3541 25.8873 76.7416 26.6272 76.6886 26.7224C76.6277 26.8529 76.6016 27.2244 76.6016 28.0708V29.2452L76.8595 29.3605C77.2331 29.5301 79.8129 29.5301 80.0782 29.3605C80.1731 29.2992 80.7094 28.6611 81.2592 27.9551C81.8159 27.2422 82.2913 26.672 82.3183 26.6789C82.3453 26.6859 82.7663 27.2561 83.2552 27.9486C83.7711 28.675 84.2326 29.2587 84.3618 29.3405C84.5588 29.4627 84.6876 29.4762 86.0725 29.4762C87.3965 29.4762 87.5949 29.4627 87.7562 29.354L87.9394 29.2387V28.0438C87.9394 27.27 87.9124 26.8016 87.858 26.7063C87.8171 26.625 87.3082 26.0073 86.7245 25.3418C86.1403 24.6698 85.5636 24.0113 85.4414 23.8686C85.2917 23.692 85.2308 23.5768 85.2713 23.5089C85.2987 23.4615 85.828 22.8434 86.4457 22.1375C87.0633 21.4385 87.6471 20.7525 87.7558 20.6303L87.9389 20.3928V19.1845C87.9389 17.7926 87.9254 17.7656 87.4096 17.7656C87.233 17.7656 86.4527 17.7995 85.6649 17.8335L84.2391 17.9013L84.0216 18.1527C83.8994 18.295 83.4784 18.8313 83.0847 19.3406C82.6911 19.8565 82.3453 20.2775 82.3174 20.2775C82.2905 20.2706 81.8285 19.7556 81.2857 19.1301C80.7424 18.499 80.2266 17.9487 80.1313 17.9148C79.8877 17.8152 76.8739 17.7474 76.7242 17.8357Z" fill="white"/>
<path d="M108.091 17.8841C107.901 18.1016 107.846 18.2756 107.704 19.0315C107.507 20.0702 107.426 21.1768 107.426 22.7992C107.426 26.1802 107.73 27.633 108.648 28.5699C109.257 29.1875 110.012 29.4864 111.16 29.5612C112.259 29.629 113.21 29.2963 114.703 28.3254C115.457 27.83 115.403 27.8096 115.504 28.6734C115.572 29.3046 115.613 29.4202 115.762 29.4881C115.952 29.5694 118.695 29.6034 119.231 29.529C120.073 29.4068 120.019 29.6712 119.917 26.3446C119.849 23.8736 119.849 23.1694 119.951 20.8641C120.012 19.4043 120.046 18.1486 120.019 18.0603C120.002 18.0097 119.975 17.9634 119.939 17.9247C119.902 17.8859 119.858 17.8558 119.808 17.8363C119.537 17.7275 115.763 17.7493 115.613 17.8567C115.504 17.938 115.491 18.2095 115.457 21.353L115.416 24.7674L115.226 25.0528C115.009 25.3855 114.452 25.8266 114.092 25.9557C113.325 26.2272 112.477 25.8944 112.164 25.1954C111.961 24.72 111.886 23.6678 111.927 21.57C111.947 20.2464 111.995 19.3773 112.076 18.8297L112.191 18.015L112.042 17.8928C111.906 17.7841 111.723 17.7706 110.041 17.7706C108.369 17.7675 108.186 17.781 108.091 17.8841Z" fill="white"/>
</svg>
