<svg width="176" height="127" viewBox="0 0 176 127" fill="none" xmlns="http://www.w3.org/2000/svg">
<path d="M135.183 80.9124C157.526 80.9124 175.639 62.7995 175.639 40.4562C175.639 18.1129 157.526 0 135.183 0C112.839 0 94.7266 18.1129 94.7266 40.4562C94.7266 62.7995 112.839 80.9124 135.183 80.9124Z" fill="#455A64"/>
<path d="M27.6401 126.449C42.9053 126.449 55.2803 114.074 55.2803 98.8091C55.2803 83.5439 42.9053 71.1689 27.6401 71.1689C12.3749 71.1689 0 83.5439 0 98.8091C0 114.074 12.3749 126.449 27.6401 126.449Z" fill="#EBEBEB"/>
<path d="M110.505 32.9126V61.8972H102.299V32.9126C102.299 21.8775 93.9176 12.9028 83.6159 12.9028C73.3141 12.9028 64.9331 21.8775 64.9331 32.9126V61.8972H56.7266V32.9126C56.7266 17.1107 68.7918 4.25977 83.6159 4.25977C98.4399 4.25977 110.505 17.1107 110.505 32.9126Z" fill="#C7C7C7"/>
<path d="M121.02 45.415H46.2188V113.267H121.02V45.415Z" fill="#FFC727"/>
<path d="M86.7811 81.8196L89.924 96.6785H76.619L79.7619 81.8196C78.5296 81.0595 77.5788 79.9182 77.054 78.5687C76.5291 77.2193 76.4589 75.7354 76.8539 74.3425C77.2489 72.9495 78.0876 71.7234 79.2427 70.8503C80.3977 69.9773 81.8061 69.5049 83.254 69.5049C84.702 69.5049 86.1103 69.9773 87.2654 70.8503C88.4205 71.7234 89.2592 72.9495 89.6542 74.3425C90.0492 75.7354 89.979 77.2193 89.4541 78.5687C88.9293 79.9182 87.9785 81.0595 86.7462 81.8196H86.7811Z" fill="#263238"/>
</svg>
